<svg width="22" height="21" viewBox="0 0 22 21" fill="none" xmlns="http://www.w3.org/2000/svg">
<g clip-path="url(#clip0_1_3674)">
<path d="M21.2951 6.43881C21.2468 5.34292 21.0696 4.58951 20.8157 3.93667C20.5538 3.24369 20.1509 2.62327 19.6231 2.10752C19.1073 1.58373 18.4828 1.17673 17.7978 0.918929C17.1412 0.665064 16.3917 0.487846 15.2959 0.439529C14.1918 0.387119 13.8413 0.375 11.0411 0.375C8.24084 0.375 7.89034 0.387119 6.79036 0.435437C5.69448 0.483754 4.94107 0.66113 4.28838 0.914837C3.59525 1.17673 2.97483 1.57964 2.45908 2.10752C1.93529 2.62327 1.52845 3.24778 1.27049 3.93273C1.01663 4.58951 0.839409 5.33883 0.791091 6.43471C0.738681 7.53878 0.726562 7.88928 0.726562 10.6895C0.726562 13.4897 0.738681 13.8402 0.786999 14.9402C0.835317 16.0361 1.01269 16.7895 1.26656 17.4424C1.52845 18.1353 1.93529 18.7558 2.45908 19.2715C2.97483 19.7953 3.59934 20.2023 4.28429 20.4601C4.94107 20.714 5.69039 20.8912 6.78643 20.9395C7.88625 20.988 8.23691 20.9999 11.0371 20.9999C13.8374 20.9999 14.1879 20.988 15.2878 20.9395C16.3837 20.8912 17.1371 20.714 17.7898 20.4601C19.1759 19.9242 20.2718 18.8283 20.8077 17.4424C21.0614 16.7856 21.2388 16.0361 21.2871 14.9402C21.3354 13.8402 21.3475 13.4897 21.3475 10.6895C21.3475 7.88928 21.3435 7.53878 21.2951 6.43881ZM19.4378 14.8596C19.3934 15.8669 19.2242 16.4108 19.0832 16.7735C18.7367 17.672 18.0235 18.3851 17.125 18.7317C16.7624 18.8727 16.2145 19.0419 15.2112 19.0861C14.1233 19.1346 13.7971 19.1465 11.0452 19.1465C8.29325 19.1465 7.96289 19.1346 6.87897 19.0861C5.8717 19.0419 5.32777 18.8727 4.96515 18.7317C4.51801 18.5664 4.11101 18.3045 3.78065 17.9621C3.43818 17.6276 3.17629 17.2247 3.01103 16.7776C2.87001 16.4149 2.70082 15.8669 2.6566 14.8637C2.60812 13.7759 2.59616 13.4495 2.59616 10.6975C2.59616 7.94563 2.60812 7.61527 2.6566 6.53151C2.70082 5.52423 2.87001 4.9803 3.01103 4.61768C3.17629 4.17039 3.43818 3.76354 3.78475 3.43303C4.11904 3.09056 4.52195 2.82866 4.96924 2.66356C5.33186 2.52255 5.87988 2.35335 6.88306 2.30897C7.97092 2.26065 8.29734 2.24853 11.0491 2.24853C13.8051 2.24853 14.1314 2.26065 15.2153 2.30897C16.2226 2.35335 16.7665 2.52255 17.1291 2.66356C17.5762 2.82866 17.9832 3.09056 18.3136 3.43303C18.6561 3.76748 18.918 4.17039 19.0832 4.61768C19.2242 4.9803 19.3934 5.52816 19.4378 6.53151C19.4861 7.61937 19.4982 7.94563 19.4982 10.6975C19.4982 13.4495 19.4861 13.7718 19.4378 14.8596Z" fill="#F9FCF5"/>
<path d="M11.0405 5.39062C8.11543 5.39062 5.74219 7.76371 5.74219 10.6889C5.74219 13.6141 8.11543 15.9872 11.0405 15.9872C13.9657 15.9872 16.3387 13.6141 16.3387 10.6889C16.3387 7.76371 13.9657 5.39062 11.0405 5.39062ZM11.0405 14.1258C9.14285 14.1258 7.6036 12.5867 7.6036 10.6889C7.6036 8.79113 9.14285 7.25204 11.0405 7.25204C12.9382 7.25204 14.4773 8.79113 14.4773 10.6889C14.4773 12.5867 12.9382 14.1258 11.0405 14.1258Z" fill="#F9FCF5"/>
<path d="M17.7865 5.18222C17.7865 5.86528 17.2326 6.41913 16.5494 6.41913C15.8663 6.41913 15.3125 5.86528 15.3125 5.18222C15.3125 4.499 15.8663 3.94531 16.5494 3.94531C17.2326 3.94531 17.7865 4.499 17.7865 5.18222Z" fill="#F9FCF5"/>
</g>
<defs>
<clipPath id="clip0_1_3674">
<rect width="20.625" height="20.625" fill="white" transform="translate(0.6875 0.375)"/>
</clipPath>
</defs>
</svg>
