<svg width="25" height="25" viewBox="0 0 25 25" fill="none" xmlns="http://www.w3.org/2000/svg">
<path d="M23.1484 6.70585C22.8885 5.73943 22.1265 4.97761 21.1602 4.71738C19.395 4.23438 12.3337 4.23438 12.3337 4.23438C12.3337 4.23438 5.27272 4.23438 3.50744 4.69907C2.55974 4.95902 1.77919 5.73957 1.51924 6.70585C1.05469 8.47099 1.05469 12.1317 1.05469 12.1317C1.05469 12.1317 1.05469 15.8108 1.51924 17.5575C1.77947 18.5238 2.54115 19.2856 3.50758 19.5458C5.29131 20.029 12.334 20.029 12.334 20.029C12.334 20.029 19.395 20.029 21.1602 19.5643C22.1267 19.3042 22.8885 18.5424 23.1487 17.5761C23.6131 15.8108 23.6131 12.1503 23.6131 12.1503C23.6131 12.1503 23.6317 8.47099 23.1484 6.70585ZM10.0856 15.5135V8.74981L15.9573 12.1317L10.0856 15.5135Z" fill="#F9FCF5"/>
</svg>
