<svg width="175" height="84" viewBox="0 0 175 84" fill="none" xmlns="http://www.w3.org/2000/svg">
<path d="M118.344 67.3956H118.781L121.187 70.4544H123.155L120.093 66.7402L122.718 63.4629H120.75L118.781 66.0847H118.344V63.4629H116.812V70.4544H118.344V67.3956Z" fill="#02B513"/>
<path d="M130.155 68.4878C130.374 68.0508 130.593 67.3953 130.593 66.9584C130.593 66.5214 130.374 65.866 130.155 65.429C130.155 64.992 129.718 64.555 129.499 64.3366C129.062 63.8996 128.624 63.6811 128.187 63.4626C127.749 63.2441 127.312 63.2441 126.656 63.2441C126.218 63.2441 125.781 63.2441 125.343 63.4626C124.906 63.6811 124.469 63.8996 124.031 64.3366C123.812 64.555 123.375 64.992 123.156 65.429C123.156 65.866 122.938 66.5214 122.938 66.9584C122.938 67.3953 123.156 68.0508 123.156 68.4878C123.375 68.9247 123.812 69.3617 124.031 69.5802C124.469 70.0172 124.906 70.2356 125.343 70.4541C125.781 70.6726 126.218 70.6726 126.656 70.6726C127.312 70.6726 127.749 70.6726 128.187 70.4541C128.624 70.2356 129.062 70.0172 129.499 69.5802C129.718 69.3617 130.155 68.9247 130.155 68.4878ZM128.843 67.8323C128.624 68.2693 128.624 68.4878 128.406 68.7063C128.187 68.7063 127.968 68.9247 127.531 69.1432C127.312 69.1432 127.093 69.1432 126.656 69.1432C126.437 69.1432 126 69.1432 125.562 68.9247C125.343 68.7063 125.125 68.4878 124.906 68.0508C124.687 67.8323 124.469 67.3953 124.469 66.9584C124.469 66.5214 124.687 66.3029 124.687 66.0844C124.906 65.6475 124.906 65.429 125.125 65.2105C125.343 64.992 125.562 64.992 126 64.7735C126.218 64.7735 126.437 64.555 126.875 64.555C127.093 64.555 127.531 64.7735 127.968 64.992C128.187 65.2105 128.406 65.429 128.624 65.6475C128.843 66.0844 129.062 66.5214 129.062 66.9584C129.062 67.1769 128.843 67.6138 128.843 67.8323Z" fill="#02B513"/>
<path d="M133 70.4544H134.312V64.7738H136.281V63.4629H131.031V64.7738H133V70.4544Z" fill="#02B513"/>
<path d="M142.187 69.1435H138.687V67.3956H141.531V66.3032H138.687V64.7738H142.187V63.4629H137.375V70.4544H142.187V69.1435Z" fill="#02B513"/>
<path d="M144.375 70.4544H149.405V72.2023H150.936V69.1435H149.843V63.4629H144.375V65.4293C144.375 66.0847 144.375 66.7402 144.375 67.1771C144.375 67.6141 144.375 68.0511 144.156 68.2695C143.937 68.488 143.937 68.7065 143.719 68.925C143.5 68.925 143.281 69.1435 142.844 69.1435V72.2023H144.375V70.4544ZM145.687 67.6141C145.906 66.9586 145.906 66.3032 145.906 65.4293V64.7738H148.312V69.1435H145.25C145.468 68.7065 145.687 68.2695 145.687 67.6141Z" fill="#02B513"/>
<path d="M153.125 70.4544L155.312 67.3956H155.749V70.4544H157.281V67.3956H157.718L159.905 70.4544H161.655L159.03 66.7402L161.218 63.4629H159.686L157.718 66.0847H157.281V63.4629H155.749V66.0847H155.312L153.562 63.4629H151.812L154.218 66.9586L151.375 70.4544H153.125Z" fill="#02B513"/>
<path d="M164.054 67.3956H167.117V70.4544H168.429V63.4629H167.117V66.0847H164.054V63.4629H162.523V70.4544H164.054V67.3956Z" fill="#02B513"/>
<path d="M171.711 69.1435V67.3956H174.335V66.3032H171.711V64.7738H174.992V63.4629H170.18V70.4544H174.992V69.1435H171.711Z" fill="#02B513"/>
<path d="M120.75 80.5047L118.125 76.3535H116.812V83.5635H118.125V78.9753L120.093 82.0341H121.187L122.937 78.9753V83.5635H124.468V76.3535H122.937L120.75 80.5047Z" fill="#02B513"/>
<path d="M127.531 76.3535H126V83.345H127.531V76.3535Z" fill="#02B513"/>
<path d="M133.437 82.0341C133.218 82.2526 132.781 82.2526 132.562 82.2526C132.125 82.2526 131.687 82.0341 131.25 82.0341C131.031 81.8156 130.594 81.5971 130.594 81.1602C130.375 80.9417 130.156 80.5047 130.156 80.0678C130.156 79.6308 130.156 79.4123 130.375 78.9753C130.375 78.7568 130.594 78.5384 130.812 78.3199C131.031 78.1014 131.25 78.1014 131.468 77.8829C131.906 77.8829 132.125 77.6644 132.562 77.6644C132.781 77.6644 133.218 77.8829 133.437 77.8829C133.656 78.1014 133.874 78.1014 134.093 78.3199L134.968 77.2275C134.531 76.7905 134.312 76.572 133.874 76.572C133.437 76.3535 132.999 76.3535 132.343 76.3535C131.906 76.3535 131.25 76.3535 130.812 76.572C130.375 76.7905 130.156 77.009 129.719 77.2275C129.5 77.6644 129.062 78.1014 128.844 78.5384C128.844 78.9753 128.625 79.4123 128.625 80.0678C128.625 80.7232 128.844 81.3787 129.062 82.0341C129.5 82.4711 129.937 82.9081 130.375 83.1265C131.031 83.5635 131.687 83.782 132.343 83.782C132.999 83.782 133.437 83.5635 133.874 83.5635C134.312 83.345 134.749 83.1265 135.187 82.9081L134.312 81.5971C134.093 81.8156 133.874 82.0341 133.437 82.0341Z" fill="#02B513"/>
<path d="M135.625 77.8829H137.594V83.5635H139.125V77.8829H141.093V76.3535H135.625V77.8829Z" fill="#02B513"/>
<path d="M143.5 80.5047H146.343V79.1938H143.5V77.6644H146.781V76.3535H141.969V83.5635H146.781V82.2526H143.5V80.5047Z" fill="#02B513"/>
<path d="M152.031 79.4123C151.812 79.6308 151.593 79.6308 151.375 79.6308C151.156 79.6308 150.937 79.6308 150.718 79.6308C150.281 79.6308 149.843 79.6308 149.625 79.4123C149.406 78.9753 149.187 78.7569 149.187 78.1014V76.3535H147.656V78.3199C147.656 78.9753 147.875 79.4123 148.094 79.8493C148.312 80.2862 148.531 80.5047 148.969 80.7232C149.406 80.9417 149.843 80.9417 150.281 80.9417C150.718 80.9417 150.937 80.9417 151.156 80.9417C151.593 80.9417 151.812 80.9417 152.031 80.7232V83.5635H153.562V76.572H152.031V79.6308V79.4123Z" fill="#02B513"/>
<path d="M160.999 76.3535H159.249L157.281 79.1938H156.625V76.3535H155.094V83.5635H156.625V80.5047H157.062L159.468 83.5635H161.437L158.593 79.8493L160.999 76.3535Z" fill="#02B513"/>
<path d="M167.773 77.4459C167.554 77.009 167.116 76.7905 166.679 76.572C166.242 76.3535 165.585 76.3535 165.148 76.3535C164.711 76.3535 164.054 76.3535 163.617 76.572C163.179 76.7905 162.742 77.009 162.523 77.4459C162.086 77.6644 161.867 78.1014 161.648 78.5384C161.43 78.9753 161.43 79.4123 161.43 80.0678C161.43 80.5047 161.43 80.9417 161.648 81.3787C161.867 81.8156 162.086 82.2526 162.523 82.6896C162.742 82.9081 163.179 83.1265 163.617 83.345C164.054 83.5635 164.711 83.782 165.148 83.782C165.585 83.782 166.242 83.5635 166.679 83.345C167.116 83.1265 167.554 82.9081 167.773 82.6896C168.21 82.2526 168.429 81.8156 168.648 81.3787C168.866 80.9417 168.866 80.5047 168.866 80.0678C168.866 79.4123 168.866 78.9753 168.648 78.5384C168.429 78.1014 168.21 77.6644 167.773 77.4459ZM167.116 80.9417C167.116 81.1602 166.898 81.3787 166.679 81.5971C166.46 81.8156 166.242 82.0341 166.023 82.0341C165.804 82.2526 165.367 82.2526 165.148 82.2526C164.711 82.2526 164.273 82.2526 164.054 82.0341C163.617 81.8156 163.398 81.5971 163.179 81.1602C162.961 80.7232 162.961 80.5047 162.961 79.8493C162.961 79.6308 162.961 79.1938 163.179 78.9753C163.179 78.7568 163.398 78.5384 163.617 78.3199C163.836 78.1014 164.054 77.8829 164.273 77.8829C164.492 77.6644 164.929 77.6644 165.148 77.6644C165.585 77.6644 166.023 77.6644 166.242 77.8829C166.679 78.1014 166.898 78.3199 167.116 78.7569C167.335 79.1938 167.335 79.4123 167.335 80.0678C167.335 80.2862 167.335 80.7232 167.116 80.9417Z" fill="#02B513"/>
<path d="M29.7656 66.5217H35.6711V83.5635H38.952V66.5217H44.6388V63.4629H29.7656V66.5217Z" fill="#F9FCF5"/>
<path d="M61.0449 64.337C59.5138 63.4631 57.5453 62.8076 55.7955 62.8076C53.827 62.8076 52.0773 63.4631 50.3275 64.337C48.7964 65.2109 47.4841 66.5219 46.6092 68.2697C45.5156 69.7991 45.0781 71.547 45.0781 73.5134C45.0781 75.4797 45.5156 77.2276 46.6092 78.757C47.4841 80.5049 48.7964 81.5973 50.3275 82.6897C52.0773 83.5636 53.827 84.0006 55.7955 84.0006C57.764 84.0006 59.5138 83.5636 61.0449 82.6897C62.5759 81.5973 63.8883 80.5049 64.9819 78.757C65.8568 77.2276 66.2942 75.4797 66.2942 73.5134C66.2942 71.547 65.8568 69.7991 64.9819 68.2697C63.8883 66.5219 62.5759 65.2109 61.0449 64.337ZM61.9198 77.2276C61.2636 78.32 60.3887 79.194 59.2951 79.8494C58.2015 80.5049 57.1079 80.9418 55.7955 80.9418C54.4832 80.9418 53.1709 80.5049 52.0773 79.8494C50.9836 79.194 50.1087 78.32 49.4526 77.2276C48.7964 76.1352 48.359 74.8243 48.359 73.5134C48.359 72.2025 48.7964 70.8915 49.4526 69.7991C50.1087 68.7067 50.9836 67.8328 52.0773 67.1773C53.1709 66.5219 54.4832 66.0849 55.7955 66.0849C57.1079 66.0849 58.2015 66.5219 59.2951 67.1773C60.3887 67.8328 61.2636 68.7067 61.9198 69.7991C62.5759 70.8915 63.0134 72.2025 63.0134 73.5134C63.0134 74.8243 62.5759 76.1352 61.9198 77.2276Z" fill="#F9FCF5"/>
<path d="M108.944 63.4626V75.6978C108.288 75.0423 107.631 74.1684 106.538 73.2944L105.882 72.639L105.225 71.9835C104.132 71.1096 103.257 70.0172 102.601 69.3617C101.945 68.4878 101.288 67.6138 101.07 66.7399C100.632 65.6475 100.414 64.555 100.414 63.2441L96.2578 63.4626V83.5632H99.7574V65.866C99.7574 66.9584 99.9761 67.8323 99.9761 68.4878C100.195 70.0172 100.632 71.1096 101.288 71.9835C101.726 73.0759 102.382 73.9499 103.476 74.8238L103.694 75.0423L103.913 75.2608C105.225 76.3532 106.1 77.4456 106.757 78.1011C107.413 78.975 108.069 79.6305 108.288 80.5044C108.725 81.3784 108.944 82.4708 108.944 83.5632H112.225V63.2441H108.944V63.4626Z" fill="#F9FCF5"/>
<path d="M41.3579 42.4882C40.483 41.8328 39.3894 41.3958 37.8584 40.9588H37.6396C36.7648 40.7404 36.1086 40.5219 35.4524 40.3034C35.015 40.0849 34.5775 39.6479 34.1401 39.211C33.9214 38.774 33.7026 38.337 33.7026 37.6816C33.7026 37.2446 33.7026 36.8076 34.1401 36.3707C34.3588 35.9337 34.7962 35.7152 35.2337 35.4967C35.6711 35.2782 36.3273 35.0598 36.9835 35.0598C37.8584 35.0598 38.5145 35.2782 39.3894 35.7152C40.0456 36.1522 40.7018 36.8076 41.1392 37.4631L43.7639 35.4967C43.1077 34.4043 42.2328 33.5304 40.9205 32.8749C39.6081 32.2195 38.2958 32.001 36.9835 32.001C35.6711 32.001 34.5775 32.2195 33.4839 32.6564C32.609 33.3119 31.7341 33.9673 31.078 34.8413C30.6405 35.7152 30.2031 36.8076 30.2031 37.9001C30.2031 38.9925 30.6405 40.0849 31.2967 40.7404C31.9529 41.6143 32.609 42.2698 33.4839 42.7067C34.5775 43.1437 35.6711 43.5807 36.9835 44.0176C38.0771 44.2361 38.7333 44.4546 39.1707 44.6731C39.8269 44.8916 40.2643 45.11 40.7018 45.547C40.9205 45.984 41.1392 46.421 41.1392 47.0764C41.1392 47.9503 40.7018 48.6058 40.0456 49.2613C39.3894 49.6982 38.5145 49.9167 37.4209 49.9167C36.3273 49.9167 35.4524 49.6982 34.5775 49.2613C33.7026 48.8243 33.0465 48.3873 32.3903 47.5134L29.7656 49.4797C30.6405 50.7906 31.7341 51.6646 33.0465 52.32C34.3588 52.757 35.6711 53.194 37.4209 53.194C38.7333 53.194 40.0456 52.9755 41.1392 52.32C42.2328 51.8831 42.889 51.0091 43.5452 50.1352C44.2013 49.2613 44.42 48.1688 44.42 47.0764C44.42 45.984 44.2013 45.11 43.5452 44.2361C43.1077 43.5807 42.4515 42.9252 41.3579 42.4882Z" fill="#F9FCF5"/>
<path d="M58.858 46.64C58.6393 46.203 58.4206 45.9845 58.2019 45.5475C57.7644 44.2366 56.8895 42.9257 55.7959 40.9594C54.921 39.6485 54.2649 38.556 53.8274 37.6821C53.39 36.8082 52.9525 35.9342 52.7338 35.0603C52.2964 33.9679 52.2964 33.3124 52.2964 32.4385H48.1406V52.7575H51.6402V36.1527C51.6402 36.5897 51.6402 36.8082 51.6402 37.2451C52.0776 38.556 52.2964 40.0854 52.9525 41.1779C53.39 42.2703 54.0461 43.7997 54.7023 45.3291C55.3585 46.64 55.7959 47.5139 56.2334 48.3878C56.4521 49.0433 56.6708 49.6988 56.8895 50.5727C56.8895 51.2281 56.8895 52.1021 56.6708 52.7575H59.7329L65.201 37.2451V52.7575H68.4818V32.4385H63.6699L58.858 46.64Z" fill="#F9FCF5"/>
<path d="M78.5382 32.4385L71.3203 52.7575H75.476C75.6948 51.8836 76.1322 51.4466 76.5697 51.0097C77.0071 50.5727 77.6633 50.1357 78.1007 49.9172C78.7569 49.4803 79.4131 49.2618 80.288 49.0433L80.9441 48.8248C82.0377 48.6063 82.9126 48.1694 83.5688 47.7324C84.0062 47.5139 84.225 47.0769 84.4437 46.64L86.6309 52.7575H90.1305L82.9126 32.4385H78.5382ZM83.1313 44.2366C82.9126 44.6736 82.6939 44.8921 82.2565 45.3291C81.6003 45.5475 80.9441 45.766 80.288 45.9845C78.9756 46.203 77.882 47.0769 77.0071 48.1694C76.5697 48.6063 76.3509 49.2618 75.9135 49.9172L80.7254 35.7157L83.1313 42.9257C83.3501 43.3627 83.3501 43.7997 83.1313 44.2366Z" fill="#F9FCF5"/>
<path d="M103.913 45.766C103.038 45.3291 102.163 45.1106 101.288 44.8921C102.382 44.8921 103.475 44.6736 104.35 44.2366C105.225 43.7997 106.1 42.9257 106.756 42.0518C107.194 40.9594 107.631 39.8669 107.631 38.7745C107.631 37.4636 107.412 36.3712 106.756 35.4973C106.1 34.6233 105.444 33.7494 104.35 33.3124C103.257 32.657 102.163 32.4385 100.851 32.4385H92.9766V52.7575H96.4761V45.1106H99.757V45.766C100.413 45.766 101.288 45.9845 101.944 46.64C102.6 47.2954 103.257 48.1694 103.694 49.2618C104.131 50.3542 104.35 51.4466 104.35 52.7575H108.287C108.287 51.2281 107.85 49.9172 106.975 48.6063C106.319 47.5139 105.225 46.4215 103.913 45.766ZM96.4761 41.8333V35.7157H100.851C101.507 35.7157 102.163 35.7157 102.6 35.9342C103.038 36.3712 103.475 36.5897 103.913 37.0267C104.131 37.4636 104.35 38.1191 104.35 38.7745C104.35 39.6485 103.913 40.3039 103.257 40.9594C102.6 41.6148 101.725 41.8333 100.851 41.8333H96.4761Z" fill="#F9FCF5"/>
<path d="M117.694 32.4385L110.477 52.7575H114.632C114.851 51.8836 115.288 51.4466 115.726 51.0097C116.163 50.5727 116.601 50.1357 117.257 49.9172C117.913 49.4803 118.569 49.2618 119.444 49.0433L119.882 48.8248C121.194 48.6063 122.069 48.1694 122.725 47.7324C123.162 47.5139 123.381 47.0769 123.6 46.64L125.568 52.7575H129.287L121.85 32.4385H117.694ZM122.288 44.2366C122.069 44.6736 121.85 44.8921 121.194 45.3291C120.757 45.5475 120.1 45.766 119.444 45.9845C118.132 46.203 117.038 47.0769 116.163 48.1694C115.726 48.6063 115.288 49.2618 115.07 49.9172H114.851L119.882 35.7157L122.288 42.9257C122.506 43.3627 122.506 43.7997 122.288 44.2366Z" fill="#F9FCF5"/>
<path d="M140.655 44.0176V44.8916C141.749 44.8916 142.405 45.11 143.061 45.547C143.717 45.984 143.936 46.6394 143.936 47.5134C143.936 47.9503 143.936 48.3873 143.498 48.8243C143.28 49.0428 142.842 49.4797 142.405 49.6982C141.967 49.9167 141.311 49.9167 140.655 49.9167C139.343 49.9167 138.249 49.6982 137.155 49.0428C136.062 48.3873 135.406 47.5134 134.749 46.2025C134.093 45.11 133.875 43.7991 133.875 42.4882C133.875 41.1773 134.093 40.0849 134.749 38.774C135.406 37.6816 136.281 36.8076 137.374 36.1522C138.686 35.4967 139.78 35.2782 141.092 35.2782C142.405 35.2782 143.28 35.4967 144.373 35.9337C145.467 36.3707 146.342 37.0261 146.998 37.6816L149.623 35.7152C148.529 34.6228 147.217 33.7489 145.904 33.0934C144.373 32.4379 142.842 32.001 141.092 32.001C139.343 32.001 137.374 32.4379 135.843 33.3119C134.093 34.4043 132.781 35.7152 131.906 37.2446C131.031 38.774 130.375 40.7404 130.375 42.4882C130.375 44.4546 130.812 46.2025 131.906 47.9503C132.781 49.4797 133.875 50.7906 135.406 51.6646C137.155 52.757 138.905 53.194 140.655 53.194C141.967 53.194 143.061 52.9755 143.936 52.5385C144.811 52.1016 145.686 51.4461 146.123 50.7906C146.56 49.9167 146.779 49.0428 146.779 48.1688C146.779 47.2949 146.56 46.6394 146.123 45.984C145.467 45.3285 144.811 44.8916 143.936 44.6731C143.061 44.2361 142.405 44.2361 141.53 44.2361V44.0176C141.53 44.2361 148.529 44.0176 148.529 44.0176V52.757H152.029V40.9588H140.655V44.0176Z" fill="#F9FCF5"/>
<path d="M173.685 37.4636C172.81 35.9342 171.498 34.6233 169.967 33.7494C168.217 32.8754 166.468 32.4385 164.499 32.4385H156.625V52.7575H164.499C166.468 52.7575 168.217 52.3206 169.967 51.4466C171.498 50.5727 172.81 49.2618 173.685 47.7324C174.56 46.203 174.998 44.4551 174.998 42.4888C174.998 40.7409 174.56 38.993 173.685 37.4636ZM170.623 46.203C170.186 47.0769 169.311 47.9509 168.217 48.6063C167.124 49.2618 165.811 49.4803 164.499 49.4803H160.125V35.7157H164.499C165.811 35.7157 167.124 35.9342 168.217 36.5897C169.311 37.0267 170.186 37.9006 170.623 38.993C171.279 40.0854 171.717 41.1779 171.717 42.4888C171.717 43.7997 171.279 45.1106 170.623 45.9845V46.203Z" fill="#F9FCF5"/>
<path d="M90.5673 63.4626L86.1928 80.0674L81.8184 63.4626H78.5375L78.7562 64.1181C78.975 64.555 78.975 65.2105 78.7562 65.866C78.7562 66.5214 78.5375 67.3953 78.3188 68.0508C77.8813 68.7063 77.4439 69.3617 77.0064 70.4541C76.1316 71.765 75.4754 73.0759 75.0379 74.1684C74.6005 75.2608 74.3818 76.7902 74.3818 78.3196C74.3818 78.975 74.3818 79.849 74.6005 80.7229H74.3818L69.5699 63.4626L66.0703 63.2441L71.7571 83.5632H75.9128C75.6941 82.2523 75.6941 80.9414 75.9128 79.6305C76.1316 78.5381 76.3503 77.2272 77.0064 76.1347C77.4439 75.0423 78.3188 73.7314 79.1937 72.202C79.6311 71.3281 80.0686 70.6726 80.506 70.0172L84.2243 83.5632H88.5988L94.2855 63.4626H90.5673Z" fill="#F9FCF5"/>
<path d="M30 29.5168L13.2353 21.1142H27.3529L15 0L2.42647 21.1142L0 25.4233L16.5441 33.8259H2.42647L15 54.9401L24.9265 37.9194L30 29.5168Z" fill="#02B513"/>
</svg>
