<svg width="111" height="40" viewBox="0 0 111 40" fill="none" xmlns="http://www.w3.org/2000/svg">
<path d="M67.7014 27.2269H68.0358L69.8746 29.5798H71.3791L69.0388 26.7227L71.0448 24.2017H69.5403L68.0358 26.2185H67.7014V24.2017H66.5312V29.5798H67.7014V27.2269Z" fill="#02B513"/>
<path d="M76.7275 28.0673C76.8947 27.7312 77.0618 27.227 77.0618 26.8908C77.0618 26.5547 76.8947 26.0505 76.7275 25.7144C76.7275 25.3782 76.3932 25.0421 76.226 24.874C75.8917 24.5379 75.5573 24.3698 75.223 24.2018C74.8886 24.0337 74.5543 24.0337 74.0528 24.0337C73.7185 24.0337 73.3841 24.0337 73.0498 24.2018C72.7155 24.3698 72.3811 24.5379 72.0468 24.874C71.8796 25.0421 71.5453 25.3782 71.3781 25.7144C71.3781 26.0505 71.2109 26.5547 71.2109 26.8908C71.2109 27.227 71.3781 27.7312 71.3781 28.0673C71.5453 28.4034 71.8796 28.7396 72.0468 28.9076C72.3811 29.2438 72.7155 29.4118 73.0498 29.5799C73.3841 29.748 73.7185 29.748 74.0528 29.748C74.5543 29.748 74.8886 29.748 75.223 29.5799C75.5573 29.4118 75.8917 29.2438 76.226 28.9076C76.3932 28.7396 76.7275 28.4034 76.7275 28.0673ZM75.7245 27.5631C75.5573 27.8992 75.5573 28.0673 75.3901 28.2354C75.223 28.2354 75.0558 28.4034 74.7215 28.5715C74.5543 28.5715 74.3871 28.5715 74.0528 28.5715C73.8856 28.5715 73.5513 28.5715 73.217 28.4034C73.0498 28.2354 72.8826 28.0673 72.7154 27.7312C72.5483 27.5631 72.3811 27.227 72.3811 26.8908C72.3811 26.5547 72.5483 26.3866 72.5483 26.2186C72.7155 25.8824 72.7155 25.7144 72.8826 25.5463C73.0498 25.3782 73.217 25.3782 73.5513 25.2102C73.7185 25.2102 73.8856 25.0421 74.22 25.0421C74.3871 25.0421 74.7215 25.2102 75.0558 25.3782C75.223 25.5463 75.3901 25.7144 75.5573 25.8824C75.7245 26.2186 75.8917 26.5547 75.8917 26.8908C75.8917 27.0589 75.7245 27.395 75.7245 27.5631Z" fill="#02B513"/>
<path d="M78.9029 29.5798H79.906V25.2101H81.4105V24.2017H77.3984V25.2101H78.9029V29.5798Z" fill="#02B513"/>
<path d="M85.9199 28.5714H83.2452V27.2269H85.4184V26.3865H83.2452V25.2101H85.9199V24.2017H82.2422V29.5798H85.9199V28.5714Z" fill="#02B513"/>
<path d="M87.592 29.5798H91.4369V30.9243H92.6071V28.5714H91.7713V24.2017H87.592V25.7143C87.592 26.2185 87.592 26.7227 87.592 27.0588C87.592 27.3949 87.5921 27.7311 87.4249 27.8991C87.2577 28.0672 87.2577 28.2353 87.0905 28.4033C86.9234 28.4033 86.7562 28.5714 86.4219 28.5714V30.9243H87.592V29.5798ZM88.5951 27.3949C88.7622 26.8907 88.7622 26.3865 88.7622 25.7143V25.2101H90.6011V28.5714H88.2607C88.4279 28.2353 88.5951 27.8991 88.5951 27.3949Z" fill="#02B513"/>
<path d="M94.2827 29.5798L95.9543 27.2269H96.2887V29.5798H97.4589V27.2269H97.7932L99.4649 29.5798H100.802L98.7962 26.7227L100.468 24.2017H99.2977L97.7932 26.2185H97.4589V24.2017H96.2887V26.2185H95.9543L94.617 24.2017H93.2797L95.1185 26.8907L92.9453 29.5798H94.2827Z" fill="#02B513"/>
<path d="M102.639 27.2269H104.979V29.5798H105.982V24.2017H104.979V26.2185H102.639V24.2017H101.469V29.5798H102.639V27.2269Z" fill="#02B513"/>
<path d="M108.49 28.5714V27.2269H110.497V26.3865H108.49V25.2101H110.998V24.2017H107.32V29.5798H110.998V28.5714H108.49Z" fill="#02B513"/>
<path d="M69.5403 37.311L67.5343 34.1177H66.5312V39.6639H67.5343V36.1345L69.0388 38.4874H69.8746L71.212 36.1345V39.6639H72.3821V34.1177H71.212L69.5403 37.311Z" fill="#02B513"/>
<path d="M74.7249 34.1177H73.5547V39.4958H74.7249V34.1177Z" fill="#02B513"/>
<path d="M79.2324 38.4874C79.0652 38.6555 78.7309 38.6555 78.5637 38.6555C78.2294 38.6555 77.895 38.4874 77.5607 38.4874C77.3935 38.3194 77.0592 38.1513 77.0592 37.8152C76.892 37.6471 76.7249 37.311 76.7249 36.9748C76.7249 36.6387 76.7249 36.4706 76.892 36.1345C76.892 35.9664 77.0592 35.7984 77.2264 35.6303C77.3935 35.4622 77.5607 35.4622 77.7279 35.2941C78.0622 35.2941 78.2294 35.1261 78.5637 35.1261C78.7309 35.1261 79.0652 35.2941 79.2324 35.2941C79.3996 35.4622 79.5667 35.4622 79.7339 35.6303L80.4026 34.7899C80.0682 34.4538 79.9011 34.2857 79.5667 34.2857C79.2324 34.1177 78.8981 34.1177 78.3966 34.1177C78.0622 34.1177 77.5607 34.1177 77.2264 34.2857C76.892 34.4538 76.7249 34.6219 76.3905 34.7899C76.2234 35.1261 75.889 35.4622 75.7219 35.7983C75.7219 36.1345 75.5547 36.4706 75.5547 36.9748C75.5547 37.479 75.7219 37.9832 75.889 38.4874C76.2234 38.8236 76.5577 39.1597 76.892 39.3278C77.3935 39.6639 77.895 39.832 78.3966 39.832C78.8981 39.832 79.2324 39.6639 79.5667 39.6639C79.9011 39.4958 80.2354 39.3278 80.5697 39.1597L79.9011 38.1513C79.7339 38.3194 79.5667 38.4874 79.2324 38.4874Z" fill="#02B513"/>
<path d="M80.9062 35.2941H82.4108V39.6639H83.5809V35.2941H85.0855V34.1177H80.9062V35.2941Z" fill="#02B513"/>
<path d="M86.928 37.311H89.1012V36.3026H86.928V35.1261H89.4355V34.1177H85.7578V39.6639H89.4355V38.6555H86.928V37.311Z" fill="#02B513"/>
<path d="M93.4449 36.4706C93.2778 36.6387 93.1106 36.6387 92.9434 36.6387C92.7763 36.6387 92.6091 36.6387 92.4419 36.6387C92.1076 36.6387 91.7732 36.6387 91.6061 36.4706C91.4389 36.1345 91.2717 35.9664 91.2717 35.4622V34.1177H90.1016V35.6303C90.1016 36.1345 90.2687 36.4706 90.4359 36.8068C90.6031 37.1429 90.7702 37.311 91.1046 37.479C91.4389 37.6471 91.7732 37.6471 92.1076 37.6471C92.4419 37.6471 92.6091 37.6471 92.7763 37.6471C93.1106 37.6471 93.2778 37.6471 93.4449 37.479V39.6639H94.6151V34.2857H93.4449V36.6387V36.4706Z" fill="#02B513"/>
<path d="M100.295 34.1177H98.9575L97.4529 36.3026H96.9514V34.1177H95.7812V39.6639H96.9514V37.311H97.2858L99.1246 39.6639H100.629L98.4559 36.8068L100.295 34.1177Z" fill="#02B513"/>
<path d="M105.481 34.958C105.314 34.6219 104.979 34.4538 104.645 34.2857C104.311 34.1177 103.809 34.1177 103.475 34.1177C103.14 34.1177 102.639 34.1177 102.304 34.2857C101.97 34.4538 101.636 34.6219 101.469 34.958C101.134 35.1261 100.967 35.4622 100.8 35.7983C100.633 36.1345 100.633 36.4706 100.633 36.9748C100.633 37.311 100.633 37.6471 100.8 37.9832C100.967 38.3194 101.134 38.6555 101.469 38.9916C101.636 39.1597 101.97 39.3278 102.304 39.4958C102.639 39.6639 103.14 39.832 103.475 39.832C103.809 39.832 104.311 39.6639 104.645 39.4958C104.979 39.3278 105.314 39.1597 105.481 38.9916C105.815 38.6555 105.982 38.3194 106.149 37.9832C106.317 37.6471 106.317 37.311 106.317 36.9748C106.317 36.4706 106.317 36.1345 106.149 35.7983C105.982 35.4622 105.815 35.1261 105.481 34.958ZM104.979 37.6471C104.979 37.8152 104.812 37.9832 104.645 38.1513C104.478 38.3194 104.311 38.4874 104.143 38.4874C103.976 38.6555 103.642 38.6555 103.475 38.6555C103.14 38.6555 102.806 38.6555 102.639 38.4874C102.304 38.3194 102.137 38.1513 101.97 37.8152C101.803 37.479 101.803 37.311 101.803 36.8068C101.803 36.6387 101.803 36.3026 101.97 36.1345C101.97 35.9664 102.137 35.7984 102.304 35.6303C102.472 35.4622 102.639 35.2941 102.806 35.2941C102.973 35.1261 103.308 35.1261 103.475 35.1261C103.809 35.1261 104.143 35.1261 104.311 35.2941C104.645 35.4622 104.812 35.6303 104.979 35.9664C105.146 36.3026 105.146 36.4706 105.146 36.9748C105.146 37.1429 105.146 37.479 104.979 37.6471Z" fill="#02B513"/>
<path d="M0 26.5546H4.51355V39.6638H7.02107V26.5546H11.3675V24.2017H0V26.5546Z" fill="#034F43"/>
<path d="M23.9064 24.8737C22.7362 24.2015 21.2317 23.6973 19.8944 23.6973C18.3899 23.6973 17.0525 24.2015 15.7152 24.8737C14.545 25.546 13.542 26.5544 12.8733 27.8989C12.0375 29.0754 11.7031 30.42 11.7031 31.9326C11.7031 33.4452 12.0375 34.7897 12.8733 35.9662C13.542 37.3107 14.545 38.151 15.7152 38.9914C17.0525 39.6637 18.3899 39.9998 19.8944 39.9998C21.3989 39.9998 22.7362 39.6637 23.9064 38.9914C25.0766 38.151 26.0796 37.3107 26.9155 35.9662C27.5841 34.7897 27.9185 33.4452 27.9185 31.9326C27.9185 30.42 27.5841 29.0754 26.9155 27.8989C26.0796 26.5544 25.0766 25.546 23.9064 24.8737ZM24.5751 34.7897C24.0736 35.63 23.4049 36.3023 22.5691 36.8065C21.7332 37.3107 20.8974 37.6468 19.8944 37.6468C18.8914 37.6468 17.8884 37.3107 17.0525 36.8065C16.2167 36.3023 15.548 35.63 15.0465 34.7897C14.545 33.9494 14.2107 32.941 14.2107 31.9326C14.2107 30.9242 14.545 29.9158 15.0465 29.0754C15.548 28.2351 16.2167 27.5628 17.0525 27.0586C17.8884 26.5544 18.8914 26.2183 19.8944 26.2183C20.8974 26.2183 21.7332 26.5544 22.5691 27.0586C23.4049 27.5628 24.0736 28.2351 24.5751 29.0754C25.0766 29.9158 25.4109 30.9242 25.4109 31.9326C25.4109 32.941 25.0766 33.9494 24.5751 34.7897Z" fill="#034F43"/>
<path d="M60.5161 24.2018V33.6135C60.0146 33.1093 59.5131 32.4371 58.6772 31.7648L58.1757 31.2606L57.6742 30.7564C56.8384 30.0841 56.1697 29.2438 55.6682 28.7396C55.1667 28.0673 54.6652 27.395 54.498 26.7228C54.1637 25.8824 53.9965 25.0421 53.9965 24.0337L50.8203 24.2018V39.6639H53.495V26.0505C53.495 26.8908 53.6622 27.5631 53.6622 28.0673C53.8293 29.2438 54.1637 30.0841 54.6652 30.7564C54.9995 31.5967 55.501 32.269 56.3369 32.9413L56.504 33.1093L56.6712 33.2774C57.6742 34.1177 58.3429 34.9581 58.8444 35.4623C59.3459 36.1345 59.8474 36.6387 60.0146 37.311C60.3489 37.9833 60.5161 38.8236 60.5161 39.6639H63.0236V24.0337H60.5161V24.2018Z" fill="#034F43"/>
<path d="M8.85993 8.06723C8.19125 7.56303 7.35541 7.22689 6.18523 6.89076H6.01806C5.34939 6.72269 4.84789 6.55462 4.34638 6.38656C4.01204 6.21849 3.67771 5.88235 3.34337 5.54622C3.1762 5.21008 3.00903 4.87395 3.00903 4.36975C3.00903 4.03361 3.00903 3.69748 3.34337 3.36134C3.51054 3.02521 3.84487 2.85714 4.17921 2.68907C4.51355 2.52101 5.01505 2.35294 5.51656 2.35294C6.18523 2.35294 6.68674 2.52101 7.35541 2.85714C7.85692 3.19328 8.35842 3.69748 8.69276 4.20168L10.6988 2.68907C10.1973 1.84874 9.5286 1.17647 8.52559 0.672268C7.52258 0.168067 6.51957 0 5.51656 0C4.51355 0 3.67771 0.168068 2.84186 0.504202C2.17319 1.0084 1.50451 1.51261 1.00301 2.18487C0.668673 2.85714 0.334337 3.69748 0.334337 4.53782C0.334337 5.37815 0.668673 6.21849 1.17018 6.72269C1.67168 7.39496 2.17319 7.89916 2.84186 8.2353C3.67771 8.57143 4.51355 8.90756 5.51656 9.2437C6.3524 9.41176 6.8539 9.57983 7.18824 9.7479C7.68975 9.91597 8.02408 10.084 8.35842 10.4202C8.52559 10.7563 8.69276 11.0924 8.69276 11.5966C8.69276 12.2689 8.35842 12.7731 7.85691 13.2773C7.35541 13.6134 6.68674 13.7815 5.85089 13.7815C5.01505 13.7815 4.34638 13.6134 3.67771 13.2773C3.00903 12.9412 2.50753 12.605 2.00602 11.9328L0 13.4454C0.668674 14.4538 1.50452 15.1261 2.50753 15.6303C3.51054 15.9664 4.51355 16.3025 5.85089 16.3025C6.85391 16.3025 7.85691 16.1345 8.69276 15.6303C9.5286 15.2941 10.0301 14.6218 10.5316 13.9496C11.0331 13.2773 11.2003 12.437 11.2003 11.5966C11.2003 10.7563 11.0331 10.084 10.5316 9.41176C10.1973 8.90756 9.69577 8.40336 8.85993 8.06723Z" fill="#034F43"/>
<path d="M22.2303 11.2603C22.0631 10.9242 21.896 10.7561 21.7288 10.42C21.3945 9.41157 20.7258 8.40316 19.89 6.89056C19.2213 5.88216 18.7198 5.04182 18.3854 4.36955C18.0511 3.69728 17.7168 3.02501 17.5496 2.35275C17.2153 1.51241 17.2153 1.00821 17.2153 0.335938H14.0391V15.9662H16.7138V3.19308C16.7138 3.52922 16.7138 3.69728 16.7138 4.03342C17.0481 5.04182 17.2153 6.21829 17.7168 7.05863C18.0511 7.89896 18.5526 9.07543 19.0541 10.2519C19.5556 11.2603 19.89 11.9326 20.2243 12.6048C20.3915 13.109 20.5586 13.6132 20.7258 14.2855C20.7258 14.7897 20.7258 15.462 20.5586 15.9662H22.899L27.0782 4.03342V15.9662H29.5857V0.335938H25.908L22.2303 11.2603Z" fill="#034F43"/>
<path d="M37.2822 0.335938L31.7656 15.9662H34.9418C35.109 15.2939 35.4433 14.9578 35.7777 14.6217C36.112 14.2855 36.6135 13.9494 36.9479 13.7813C37.4494 13.4452 37.9509 13.2771 38.6195 13.109L39.121 12.941C39.9569 12.7729 40.6256 12.4368 41.1271 12.1006C41.4614 11.9326 41.6286 11.5964 41.7957 11.2603L43.4674 15.9662H46.1421L40.6256 0.335938H37.2822ZM40.7927 9.41157C40.6256 9.7477 40.4584 9.91577 40.124 10.2519C39.6225 10.42 39.121 10.588 38.6195 10.7561C37.6165 10.9242 36.7807 11.5964 36.112 12.4368C35.7777 12.7729 35.6105 13.2771 35.2762 13.7813L38.9539 2.85695L40.7927 8.40316C40.9599 8.7393 40.9599 9.07543 40.7927 9.41157Z" fill="#034F43"/>
<path d="M56.6709 10.588C56.0022 10.2519 55.3336 10.0838 54.6649 9.91577C55.5007 9.91577 56.3366 9.7477 57.0053 9.41157C57.6739 9.07543 58.3426 8.40316 58.8441 7.7309C59.1784 6.89056 59.5128 6.05022 59.5128 5.20989C59.5128 4.20148 59.3456 3.36115 58.8441 2.68888C58.3426 2.01661 57.8411 1.34434 57.0053 1.00821C56.1694 0.504004 55.3336 0.335938 54.3306 0.335938H48.3125V15.9662H50.9872V10.0838H53.4947V10.588C53.9962 10.588 54.6649 10.7561 55.1664 11.2603C55.6679 11.7645 56.1694 12.4368 56.5038 13.2771C56.8381 14.1175 57.0053 14.9578 57.0053 15.9662H60.0143C60.0143 14.7897 59.68 13.7813 59.0113 12.7729C58.5098 11.9326 57.6739 11.0922 56.6709 10.588ZM50.9872 7.56283V2.85695H54.3306C54.8321 2.85695 55.3336 2.85695 55.6679 3.02501C56.0023 3.36115 56.3366 3.52922 56.6709 3.86535C56.8381 4.20148 57.0053 4.70568 57.0053 5.20989C57.0053 5.88216 56.6709 6.38636 56.1694 6.89056C55.6679 7.39476 54.9992 7.56283 54.3306 7.56283H50.9872Z" fill="#034F43"/>
<path d="M67.2041 0.335938L61.6875 15.9662H64.8637C65.0309 15.2939 65.3652 14.9578 65.6995 14.6217C66.0339 14.2855 66.3682 13.9494 66.8697 13.7813C67.3712 13.4452 67.8727 13.2771 68.5414 13.109L68.8757 12.941C69.8788 12.7729 70.5474 12.4368 71.0489 12.1006C71.3833 11.9326 71.5504 11.5964 71.7176 11.2603L73.2221 15.9662H76.064L70.3803 0.335938H67.2041ZM70.7146 9.41157C70.5474 9.7477 70.3803 9.91577 69.8788 10.2519C69.5444 10.42 69.0429 10.588 68.5414 10.7561C67.5384 10.9242 66.7026 11.5964 66.0339 12.4368C65.6995 12.7729 65.3652 13.2771 65.198 13.7813H65.0309L68.8757 2.85695L70.7146 8.40316C70.8818 8.7393 70.8818 9.07543 70.7146 9.41157Z" fill="#034F43"/>
<path d="M84.7554 9.2437V9.91597C85.5912 9.91597 86.0927 10.084 86.5942 10.4202C87.0957 10.7563 87.2629 11.2605 87.2629 11.9328C87.2629 12.2689 87.2629 12.605 86.9285 12.9412C86.7614 13.1092 86.427 13.4454 86.0927 13.6134C85.7584 13.7815 85.2569 13.7815 84.7554 13.7815C83.7524 13.7815 82.9165 13.6134 82.0807 13.1092C81.2448 12.605 80.7433 11.9328 80.2418 10.9244C79.7403 10.084 79.5731 9.07563 79.5731 8.06723C79.5731 7.05882 79.7403 6.21849 80.2418 5.21008C80.7433 4.36975 81.412 3.69748 82.2478 3.19328C83.2508 2.68908 84.0867 2.52101 85.0897 2.52101C86.0927 2.52101 86.7614 2.68908 87.5972 3.02521C88.4331 3.36134 89.1017 3.86555 89.6032 4.36975L91.6093 2.85714C90.7734 2.01681 89.7704 1.34454 88.7674 0.840336C87.5972 0.336134 86.427 0 85.0897 0C83.7523 0 82.2478 0.336133 81.0776 1.0084C79.7403 1.84874 78.7373 2.85714 78.0686 4.03361C77.3999 5.21008 76.8984 6.72269 76.8984 8.06723C76.8984 9.57983 77.2328 10.9244 78.0686 12.2689C78.7373 13.4454 79.5731 14.4538 80.7433 15.126C82.0807 15.9664 83.418 16.3025 84.7554 16.3025C85.7584 16.3025 86.5942 16.1345 87.2629 15.7983C87.9316 15.4622 88.6002 14.958 88.9346 14.4538C89.2689 13.7815 89.4361 13.1092 89.4361 12.437C89.4361 11.7647 89.2689 11.2605 88.9346 10.7563C88.4331 10.2521 87.9316 9.91597 87.2629 9.7479C86.5942 9.41177 86.0927 9.41176 85.424 9.41176V9.2437C85.424 9.41176 90.7734 9.2437 90.7734 9.2437V15.9664H93.4481V6.89076H84.7554V9.2437Z" fill="#034F43"/>
<path d="M110 4.20148C109.331 3.02501 108.328 2.01661 107.158 1.34434C105.821 0.672073 104.484 0.335938 102.979 0.335938H96.9609V15.9662H102.979C104.484 15.9662 105.821 15.6301 107.158 14.9578C108.328 14.2855 109.331 13.2771 110 12.1006C110.669 10.9242 111.003 9.57964 111.003 8.06703C111.003 6.72249 110.669 5.37795 110 4.20148ZM107.66 10.9242C107.325 11.5964 106.657 12.2687 105.821 12.7729C104.985 13.2771 103.982 13.4452 102.979 13.4452H99.6356V2.85695H102.979C103.982 2.85695 104.985 3.02501 105.821 3.52921C106.657 3.86535 107.325 4.53762 107.66 5.37795C108.161 6.21829 108.496 7.05863 108.496 8.06703C108.496 9.07543 108.161 10.0838 107.66 10.7561V10.9242Z" fill="#034F43"/>
<path d="M46.4729 24.2018L43.1295 36.9749L39.7861 24.2018H37.2786L37.4458 24.706C37.6129 25.0421 37.6129 25.5463 37.4458 26.0505C37.4458 26.5547 37.2786 27.227 37.1114 27.7312C36.7771 28.2354 36.4428 28.7396 36.1084 29.5799C35.4397 30.5883 34.9382 31.5967 34.6039 32.437C34.2696 33.2774 34.1024 34.4539 34.1024 35.6303C34.1024 36.1345 34.1024 36.8068 34.2696 37.4791H34.1024L30.4247 24.2018L27.75 24.0337L32.0964 39.6639H35.2726C35.1054 38.6555 35.1054 37.6471 35.2726 36.6387C35.4397 35.7984 35.6069 34.79 36.1084 33.9497C36.4428 33.1093 37.1114 32.1009 37.7801 30.9244C38.1144 30.2522 38.4488 29.748 38.7831 29.2438L41.625 39.6639H44.9683L49.3147 24.2018H46.4729Z" fill="#034F43"/>
</svg>
